<?xml version="1.0" standalone="no"?><!DOCTYPE svg PUBLIC "-//W3C//DTD SVG 1.1//EN" "http://www.w3.org/Graphics/SVG/1.1/DTD/svg11.dtd"><svg t="1571061096673" class="icon" viewBox="0 0 1024 1024" version="1.1" xmlns="http://www.w3.org/2000/svg" p-id="8781" xmlns:xlink="http://www.w3.org/1999/xlink" width="128" height="128"><defs><style type="text/css"></style></defs><path d="M858.157881 862.823134 166.296467 862.823134c-19.764136 0-35.786041-16.020882-35.786041-35.785018L130.510426 349.891925c0-19.764136 16.021905-35.787064 35.786041-35.787064l152.83999 0 57.308217-57.307194c6.534833-8.614192 16.779152-14.264888 28.424376-14.264888L619.585297 242.532779c10.050913 0 19.10308 4.172019 25.604144 10.844999l0.031722-0.031722 60.758806 60.757782 152.177911 0c19.764136 0 35.786041 16.022928 35.786041 35.787064l0 477.146191C893.943922 846.802252 877.922017 862.823134 858.157881 862.823134zM512.227174 361.820606c-118.584815 0-214.715223 96.132454-214.715223 214.715223 0 118.585839 96.131431 214.715223 214.715223 214.715223s214.715223-96.130408 214.715223-214.715223C726.942397 457.95306 630.810966 361.820606 512.227174 361.820606zM512.227174 704.672184c-70.76674 0-128.134309-57.369615-128.134309-128.135332s57.367569-128.134309 128.134309-128.134309 128.134309 57.367569 128.134309 128.134309S582.993914 704.672184 512.227174 704.672184z" p-id="8782" fill="#1296db"></path></svg>