<?xml version="1.0" standalone="no"?><!DOCTYPE svg PUBLIC "-//W3C//DTD SVG 1.1//EN" "http://www.w3.org/Graphics/SVG/1.1/DTD/svg11.dtd"><svg t="1571061680613" class="icon" viewBox="0 0 1024 1024" version="1.1" xmlns="http://www.w3.org/2000/svg" p-id="4456" xmlns:xlink="http://www.w3.org/1999/xlink" width="128" height="128"><defs><style type="text/css"></style></defs><path d="M764.8 569c-37.8 0-72.2 13.5-99.9 35.1l-118.8-113 314.2-301.7c9.3-8.9 9.6-23.7 0.6-33-8.9-9.3-23.6-9.5-33-0.7L512.2 459 193.4 155.7c-9.4-8.9-24.1-8.5-33 0.8-8.9 9.3-8.5 24.1 0.8 33l317.4 301.8-117.4 112.8c-27.8-21.7-62.2-35.1-100-35.1-90 0-163.2 73.2-163.2 163.2s73.2 163.2 163.2 163.2 163.2-73.2 163.2-163.2c0-35.4-11.6-67.9-30.8-94.6l118.8-114 119.9 114.1c-19.2 26.7-30.8 59.3-30.8 94.6 0 90 73.2 163.2 163.2 163.2S928 822.1 928 732.2 854.8 569 764.8 569zM261.2 848.7c-64.3 0-116.6-52.3-116.6-116.6s52.3-116.6 116.6-116.6 116.6 52.3 116.6 116.6-52.3 116.6-116.6 116.6z m503.6 0c-64.3 0-116.6-52.3-116.6-116.6s52.3-116.6 116.6-116.6 116.6 52.3 116.6 116.6-52.3 116.6-116.6 116.6z" p-id="4457" fill="#D6DB02"></path></svg>