<?xml version="1.0" standalone="no"?><!DOCTYPE svg PUBLIC "-//W3C//DTD SVG 1.1//EN" "http://www.w3.org/Graphics/SVG/1.1/DTD/svg11.dtd"><svg t="1571061230058" class="icon" viewBox="0 0 1024 1024" version="1.1" xmlns="http://www.w3.org/2000/svg" p-id="9788" xmlns:xlink="http://www.w3.org/1999/xlink" width="128" height="128"><defs><style type="text/css"></style></defs><path d="M863.9 723.8h-70.3v-462c0-19.3-15.7-35-35-35h-462v-65.4c0-19.3-15.7-35-35-35s-35 15.7-35 35v65.4h-65.4c-19.3 0-35 15.7-35 35s15.7 35 35 35h65.4v462c0 19.3 15.7 35 35 35h462v70.3c0 19.3 15.7 35 35 35s35-15.7 35-35v-70.3h70.3c19.3 0 35-15.7 35-35s-15.7-35-35-35z m-567.3 0v-427h427v427h-427z" p-id="9789" fill="#9FCA3D"></path></svg>